<?xml version="1.0" standalone="no"?><!DOCTYPE svg PUBLIC "-//W3C//DTD SVG 1.1//EN" "http://www.w3.org/Graphics/SVG/1.1/DTD/svg11.dtd"><svg t="1565702066672" class="icon" viewBox="0 0 1024 1024" version="1.1" xmlns="http://www.w3.org/2000/svg" p-id="4824" width="32" height="32" xmlns:xlink="http://www.w3.org/1999/xlink"><defs><style type="text/css"></style></defs><path d="M225.28 532.48h102.4v307.2h-102.4z" p-id="4825"></path><path d="M327.76192 860.16h-108.38016a14.70464 14.70464 0 0 1-10.30144-4.1984A14.21312 14.21312 0 0 1 204.8 845.824V528.22016c0-3.7888 1.536-7.43424 4.28032-10.1376a14.70464 14.70464 0 0 1 10.30144-4.1984h108.38016c3.87072 0 7.5776 1.51552 10.32192 4.1984 2.72384 2.70336 4.25984 6.3488 4.25984 10.1376V845.824a14.21312 14.21312 0 0 1-4.25984 10.1376 14.70464 14.70464 0 0 1-10.32192 4.1984z m-93.7984-28.672h79.21664V542.5152h-79.21664V831.488zM443.43296 471.04H573.44v374.784h-130.00704V471.04z" p-id="4826"></path><path d="M577.1264 860.16h-132.21888a14.58176 14.58176 0 0 1-14.82752-14.31552V471.79776c0-7.90528 6.63552-14.31552 14.82752-14.31552h132.21888c3.93216 0 7.70048 1.51552 10.48576 4.1984a14.04928 14.04928 0 0 1 4.34176 10.11712V845.824a14.04928 14.04928 0 0 1-4.34176 10.11712 15.11424 15.11424 0 0 1-10.48576 4.1984z m-117.41184-28.61056h102.56384V486.0928h-102.56384v345.45664zM680.57088 409.6H819.2v436.224h-138.62912V409.6z" p-id="4827"></path><path d="M824.46336 860.16h-137.216a14.9504 14.9504 0 0 1-10.36288-4.15744 13.94688 13.94688 0 0 1-4.3008-10.0352v-432.5376c0-3.76832 1.536-7.3728 4.3008-10.0352a14.9504 14.9504 0 0 1 10.38336-4.15744h137.19552a14.9504 14.9504 0 0 1 10.38336 4.15744c2.74432 2.6624 4.3008 6.26688 4.3008 10.0352v432.5376c0 7.84384-6.57408 14.19264-14.68416 14.19264z m-122.53184-28.3648h107.84768V427.6224h-107.8272v404.1728z m-74.32192-443.74016a14.9504 14.9504 0 0 1-9.50272-3.3792l-206.17216-169.6768-203.9808 152.04352a15.0528 15.0528 0 0 1-20.60288-2.58048 13.84448 13.84448 0 0 1 2.70336-19.88608l213.38112-159.06816c5.48864-4.096 13.16864-3.8912 18.432 0.4096l205.312 168.96 178.21696-160.19456-99.5328 6.08256a15.01184 15.01184 0 0 1-10.60864-3.52256 13.88544 13.88544 0 0 1-1.31072-20.02944 14.86848 14.86848 0 0 1 10.07616-4.77184l140.53376-8.58112a14.7456 14.7456 0 0 1 14.41792 8.56064 13.84448 13.84448 0 0 1-3.4816 15.9744l-217.86624 195.87072a14.9504 14.9504 0 0 1-10.01472 3.7888z" p-id="4828"></path></svg>