<?xml version="1.0" standalone="no"?><!DOCTYPE svg PUBLIC "-//W3C//DTD SVG 1.1//EN" "http://www.w3.org/Graphics/SVG/1.1/DTD/svg11.dtd"><svg t="1565702281271" class="icon" viewBox="0 0 1024 1024" version="1.1" xmlns="http://www.w3.org/2000/svg" p-id="9373" xmlns:xlink="http://www.w3.org/1999/xlink" width="32" height="32"><defs><style type="text/css"></style></defs><path d="M509.90592 514.55488m-99.33824 0a99.33824 99.33824 0 1 0 198.67648 0 99.33824 99.33824 0 1 0-198.67648 0Z" p-id="9374"></path><path d="M509.90592 117.1968c-219.45344 0-397.35808 177.89952-397.35808 397.35808s177.90464 397.35808 397.35808 397.35808c219.45344 0 397.35808-177.90464 397.35808-397.35808S729.35936 117.1968 509.90592 117.1968z m0 596.03456c-109.72672 0-198.67648-88.94976-198.67648-198.67648S400.1792 315.8784 509.90592 315.8784s198.67648 88.94976 198.67648 198.67648-88.94976 198.67648-198.67648 198.67648z" p-id="9375"></path></svg>