<?xml version="1.0" standalone="no"?><!DOCTYPE svg PUBLIC "-//W3C//DTD SVG 1.1//EN" "http://www.w3.org/Graphics/SVG/1.1/DTD/svg11.dtd"><svg t="1565702195222" class="icon" viewBox="0 0 1030 1024" version="1.1" xmlns="http://www.w3.org/2000/svg" p-id="6725" xmlns:xlink="http://www.w3.org/1999/xlink" width="32.1875" height="32"><defs><style type="text/css"></style></defs><path d="M104.1875 326.375c-56.25-28.125-56.25-67.5 0-95.625L413.5625 84.5c56.25-28.125 146.25-28.125 202.5 0L925.4375 230.75c56.25 28.125 56.25 67.5 0 95.625L616.0625 472.625c-56.25 28.125-146.25 28.125-202.5 0L104.1875 326.375zM126.6875 455.75l286.875 140.625c56.25 28.125 146.25 28.125 202.5 0L902.9375 455.75l22.5 11.25c56.25 28.125 56.25 67.5 0 95.625l-309.375 146.25c-56.25 28.125-146.25 28.125-202.5 0L104.1875 562.625c-56.25-28.125-56.25-67.5 0-95.625l22.5-11.25z m0 230.625l286.875 140.625c56.25 28.125 146.25 28.125 202.5 0l286.875-140.625 22.5 11.25c56.25 28.125 56.25 67.5 0 95.625l-309.375 146.25c-56.25 28.125-146.25 28.125-202.5 0L104.1875 793.25c-56.25-28.125-56.25-67.5 0-95.625l22.5-11.25z" p-id="6726"></path></svg>