<?xml version="1.0" standalone="no"?><!DOCTYPE svg PUBLIC "-//W3C//DTD SVG 1.1//EN" "http://www.w3.org/Graphics/SVG/1.1/DTD/svg11.dtd"><svg t="1565702393584" class="icon" viewBox="0 0 1024 1024" version="1.1" xmlns="http://www.w3.org/2000/svg" p-id="10845" xmlns:xlink="http://www.w3.org/1999/xlink" width="32" height="32"><defs><style type="text/css"></style></defs><path d="M512 256c47.104 0 85.504-38.4 85.504-85.504s-38.4-85.504-85.504-85.504-85.504 38.4-85.504 85.504S464.896 256 512 256z m0-42.496c-23.552 0-42.496-18.944-42.496-42.496S488.448 128 512 128c23.552 0 42.496 18.944 42.496 42.496 0 23.552-18.944 43.008-42.496 43.008z m-202.24 317.44c8.704 4.608 19.456 3.072 26.112-4.608L512 330.752l176.128 195.584c6.656 7.168 17.408 9.216 26.112 4.608l196.608-107.008-75.776 472.064H188.928l-14.336-92.16h563.712c11.776 0 21.504-9.728 21.504-21.504 0-11.776-9.728-21.504-21.504-21.504H150.016c-11.776 0-21.504 9.728-21.504 21.504v3.072l20.48 134.656c1.536 10.24 10.752 17.92 20.992 17.92h682.496c10.24 0 19.456-7.68 20.992-17.92l85.504-533.504c2.048-11.776-6.144-22.528-17.92-24.576-4.608-0.512-9.216 0-13.824 2.56l-219.648 119.808-180.736-200.704c-7.68-8.704-21.504-9.216-30.208-1.536l-1.536 1.536-179.712 201.728-219.648-120.32c-10.24-5.632-23.552-2.048-29.184 8.704-2.048 4.096-3.072 9.216-2.56 13.824l46.08 278.528c2.56 11.776 13.824 18.944 25.088 16.896 10.752-2.048 18.432-12.288 16.896-23.552l-38.912-235.52 196.608 107.008z" fill="" p-id="10846"></path></svg>