<svg 
 xmlns="http://www.w3.org/2000/svg"
 xmlns:xlink="http://www.w3.org/1999/xlink"
 width="51px" height="9px">
<path fill-rule="evenodd"  fill="rgb(255, 255, 255)"
 d="M4.500,-0.000 C6.985,-0.000 9.000,2.015 9.000,4.500 C9.000,6.985 6.985,9.000 4.500,9.000 C2.015,9.000 -0.000,6.985 -0.000,4.500 C-0.000,2.015 2.015,-0.000 4.500,-0.000 Z"/>
<path fill-rule="evenodd"  opacity="0.6" fill="rgb(255, 255, 255)"
 d="M25.500,-0.000 C27.985,-0.000 30.000,2.015 30.000,4.500 C30.000,6.985 27.985,9.000 25.500,9.000 C23.015,9.000 21.000,6.985 21.000,4.500 C21.000,2.015 23.015,-0.000 25.500,-0.000 Z"/>
<path fill-rule="evenodd"  opacity="0.6" fill="rgb(255, 255, 255)"
 d="M46.500,-0.000 C48.985,-0.000 51.000,2.015 51.000,4.500 C51.000,6.985 48.985,9.000 46.500,9.000 C44.015,9.000 42.000,6.985 42.000,4.500 C42.000,2.015 44.015,-0.000 46.500,-0.000 Z"/>
</svg>