<svg 
 xmlns="http://www.w3.org/2000/svg"
 xmlns:xlink="http://www.w3.org/1999/xlink"
 width="30px" height="30px">
<path fill-rule="evenodd"  fill="rgb(39, 198, 140)"
 d="M25.000,-0.000 C27.762,-0.000 30.000,2.239 30.000,5.000 L30.000,25.000 C30.000,27.761 27.762,30.000 25.000,30.000 L5.000,30.000 C2.239,30.000 -0.000,27.761 -0.000,25.000 L-0.000,5.000 C-0.000,2.239 2.239,-0.000 5.000,-0.000 L25.000,-0.000 ZM10.615,24.465 C10.362,24.465 10.156,24.670 10.156,24.924 L10.156,25.327 C10.156,25.453 10.207,25.573 10.298,25.660 C10.390,25.746 10.512,25.792 10.638,25.786 C11.778,25.730 12.586,25.693 13.063,25.675 C13.875,25.645 14.540,25.630 15.059,25.630 C15.776,25.630 17.111,25.675 19.065,25.765 C19.280,25.774 19.496,25.783 19.711,25.791 C19.965,25.791 20.171,25.585 20.171,25.332 L20.171,24.924 C20.171,24.670 19.965,24.465 19.711,24.465 L19.647,24.465 C19.070,24.465 18.621,24.410 18.302,24.300 C17.983,24.191 17.749,24.011 17.600,23.762 C17.470,23.503 17.375,23.109 17.316,22.581 C17.256,22.053 17.226,21.131 17.226,19.816 L17.226,17.021 C17.226,15.652 17.231,13.854 17.295,7.370 C17.298,7.118 17.503,6.916 17.754,6.916 L19.931,6.916 C21.456,6.916 22.478,7.128 22.996,7.551 C23.306,7.805 23.615,8.493 23.923,9.614 C23.985,9.840 24.206,9.982 24.436,9.947 L24.932,9.870 C25.177,9.832 25.348,9.606 25.318,9.360 C25.197,8.380 25.119,7.647 25.081,7.163 C25.017,6.360 24.985,5.555 24.984,4.749 C24.984,4.639 24.934,4.535 24.848,4.466 C24.762,4.397 24.649,4.372 24.542,4.396 C24.132,4.489 23.748,4.550 23.392,4.577 C22.669,4.632 21.391,4.659 19.558,4.659 L10.589,4.659 C8.955,4.659 7.794,4.632 7.107,4.577 C6.783,4.551 6.422,4.498 6.023,4.416 C5.893,4.390 5.758,4.421 5.653,4.501 C5.547,4.581 5.482,4.703 5.473,4.836 C5.411,5.751 5.346,6.462 5.276,6.969 C5.202,7.498 5.056,8.293 4.838,9.355 C4.787,9.602 4.945,9.844 5.192,9.896 L5.739,10.013 C5.970,10.061 6.200,9.928 6.272,9.703 C6.641,8.547 6.999,7.837 7.346,7.574 C7.924,7.135 8.995,6.916 10.559,6.916 L12.671,6.916 C12.793,6.916 12.910,6.964 12.996,7.051 C13.082,7.137 13.130,7.254 13.130,7.375 L13.130,15.466 C13.130,18.376 13.110,20.369 13.071,21.445 C13.031,22.521 12.961,23.199 12.861,23.478 C12.712,23.847 12.483,24.103 12.174,24.248 C11.865,24.392 11.377,24.465 10.709,24.465 L10.615,24.465 Z"/>
</svg>