<svg 
 xmlns="http://www.w3.org/2000/svg"
 xmlns:xlink="http://www.w3.org/1999/xlink"
 width="31px" height="32px">
<path fill-rule="evenodd"  fill="rgb(18, 18, 18)"
 d="M30.893,28.448 C30.695,30.526 28.972,31.896 26.616,31.942 C23.944,31.993 21.271,31.956 18.598,31.957 C17.555,31.957 16.511,31.957 15.468,31.956 C11.948,31.955 8.428,31.971 4.907,31.950 C1.530,31.931 0.034,30.407 0.011,27.012 C0.005,25.963 -0.033,24.911 0.033,23.866 C0.105,22.725 0.793,22.080 1.737,22.134 C2.611,22.183 3.128,22.759 3.229,23.867 C3.277,24.387 3.251,24.915 3.254,25.439 C3.268,28.380 3.529,28.642 6.537,28.646 C10.905,28.652 15.273,28.649 19.641,28.648 C21.531,28.648 23.422,28.673 25.312,28.636 C27.274,28.597 27.699,28.141 27.741,26.167 C27.758,25.381 27.706,24.590 27.767,23.808 C27.850,22.744 28.434,22.158 29.319,22.137 C30.213,22.116 30.890,22.691 30.933,23.733 C30.998,25.302 31.043,26.888 30.893,28.448 ZM26.115,14.475 C25.777,14.308 25.499,14.001 25.224,13.726 C24.079,12.583 19.940,8.419 17.169,5.625 C17.170,9.990 17.171,14.355 17.170,18.720 C17.170,20.030 17.211,21.343 17.147,22.651 C17.086,23.866 16.501,24.485 15.558,24.516 C14.591,24.548 14.005,23.955 13.873,22.758 C13.823,22.304 13.849,21.841 13.849,21.382 C13.847,18.499 13.848,15.615 13.848,12.732 C13.848,10.576 13.848,8.419 13.848,6.263 L13.402,6.065 C12.541,6.928 11.679,7.791 10.820,8.655 C9.024,10.462 7.251,12.292 5.424,14.065 C4.599,14.866 3.642,14.879 2.985,14.250 C2.277,13.571 2.302,12.764 3.073,11.813 C3.237,11.611 3.433,11.435 3.617,11.249 C6.976,7.865 10.336,4.482 13.695,1.099 C13.833,0.960 13.974,0.823 14.111,0.683 C14.652,0.132 15.282,-0.179 16.046,0.112 C16.295,0.207 16.481,0.350 16.639,0.513 C16.743,0.586 16.846,0.666 16.939,0.757 C18.666,2.448 26.026,9.881 27.726,11.600 C27.908,11.785 28.084,11.983 28.228,12.199 C28.690,12.891 28.627,13.569 28.079,14.174 C27.518,14.794 26.811,14.820 26.115,14.475 Z"/>
</svg>