<svg 
 xmlns="http://www.w3.org/2000/svg"
 xmlns:xlink="http://www.w3.org/1999/xlink"
 width="64px" height="64px">
<path fill-rule="evenodd"  fill="rgb(255, 255, 255)"
 d="M32.000,63.999 C14.354,63.999 0.000,49.646 0.000,32.000 C0.000,14.354 14.354,-0.000 32.000,-0.000 C49.646,-0.000 64.000,14.354 64.000,32.000 C64.000,49.646 49.646,63.999 32.000,63.999 ZM32.000,4.591 C16.888,4.591 4.592,16.888 4.592,32.000 C4.592,47.111 16.888,59.408 32.000,59.408 C47.111,59.408 59.408,47.111 59.408,32.000 C59.408,16.888 47.111,4.591 32.000,4.591 ZM42.915,34.300 L27.160,43.396 C24.975,44.659 23.184,43.626 23.184,41.101 L23.184,22.904 C23.184,20.378 24.970,19.345 27.160,20.608 L42.915,29.708 C45.105,30.971 45.105,33.038 42.915,34.300 Z"/>
</svg>