<svg 
 xmlns="http://www.w3.org/2000/svg"
 xmlns:xlink="http://www.w3.org/1999/xlink"
 width="29px" height="30px">
<path fill-rule="evenodd"  fill="rgb(18, 18, 18)"
 d="M28.900,26.669 C28.714,28.618 27.103,29.903 24.899,29.945 C22.399,29.993 19.898,29.958 17.398,29.959 C16.422,29.959 15.446,29.959 14.470,29.958 C11.177,29.958 7.884,29.972 4.591,29.953 C1.431,29.935 0.031,28.507 0.011,25.323 C0.004,24.340 -0.031,23.354 0.031,22.374 C0.099,21.304 0.742,20.699 1.625,20.750 C2.443,20.796 2.926,21.337 3.021,22.375 C3.066,22.863 3.041,23.358 3.044,23.849 C3.057,26.607 3.301,26.852 6.115,26.855 C10.201,26.861 14.287,26.858 18.373,26.858 C20.142,26.857 21.911,26.881 23.679,26.846 C25.514,26.810 25.912,26.382 25.952,24.532 C25.967,23.794 25.918,23.054 25.976,22.320 C26.053,21.322 26.600,20.773 27.428,20.753 C28.263,20.733 28.897,21.273 28.937,22.249 C28.998,23.721 29.040,25.207 28.900,26.669 ZM26.149,11.991 C24.529,13.586 17.517,20.486 15.871,22.055 C15.782,22.140 15.685,22.215 15.585,22.282 C15.434,22.433 15.258,22.566 15.020,22.655 C14.292,22.925 13.691,22.636 13.176,22.124 C13.046,21.994 12.912,21.868 12.780,21.738 C9.579,18.598 6.378,15.457 3.178,12.316 C3.002,12.144 2.816,11.981 2.659,11.793 C1.925,10.910 1.901,10.161 2.575,9.531 C3.201,8.947 4.113,8.959 4.899,9.702 C6.640,11.348 8.329,13.047 10.040,14.724 C10.859,15.527 11.681,16.327 12.501,17.129 L12.926,16.945 C12.926,14.943 12.926,12.941 12.926,10.940 C12.926,8.263 12.925,5.586 12.927,2.910 C12.927,2.484 12.902,2.054 12.950,1.633 C13.075,0.521 13.634,-0.029 14.555,0.001 C15.454,0.030 16.012,0.605 16.069,1.732 C16.130,2.946 16.091,4.165 16.091,5.382 C16.092,9.433 16.092,13.485 16.090,17.537 C18.731,14.943 22.675,11.078 23.766,10.017 C24.028,9.762 24.293,9.477 24.615,9.321 C25.278,9.002 25.951,9.026 26.486,9.600 C27.008,10.163 27.068,10.792 26.628,11.435 C26.491,11.635 26.323,11.819 26.149,11.991 Z"/>
</svg>