<svg 
 xmlns="http://www.w3.org/2000/svg"
 xmlns:xlink="http://www.w3.org/1999/xlink"
 width="137.5px" height="135.5px">
<path fill-rule="evenodd"  stroke="rgb(255, 255, 255)" stroke-width="5px" stroke-linecap="butt" stroke-linejoin="miter" opacity="0.8" fill="none"
 d="M99.500,11.074 C130.111,28.747 140.599,67.889 122.926,98.500 C105.252,129.111 66.111,139.599 35.500,121.926 C4.889,104.252 -5.599,65.111 12.074,34.500 C29.747,3.889 68.889,-6.599 99.500,11.074 Z"/>
<path fill-rule="evenodd"  stroke="rgb(255, 255, 255)" stroke-width="2px" stroke-linecap="butt" stroke-linejoin="miter" opacity="0.8" fill="none"
 d="M104.027,99.176 C88.893,116.129 63.458,120.747 43.000,108.935 C41.530,108.086 40.120,107.173 38.773,106.200 M30.926,33.876 C46.055,16.880 71.521,12.241 92.000,24.065 C93.440,24.896 94.823,25.790 96.145,26.741 "/>
<path fill-rule="evenodd"  fill="rgb(248, 248, 248)"
 d="M94.212,62.059 L102.402,62.059 L102.402,69.417 L95.798,69.417 C97.635,72.035 100.790,74.392 105.262,76.489 L103.988,78.101 C99.394,75.536 96.162,72.641 94.290,69.417 L94.212,69.417 L94.212,78.855 L92.288,78.855 L92.288,69.417 L92.210,69.417 C90.234,72.953 86.949,75.865 82.356,78.153 L81.264,76.437 C85.597,74.617 88.734,72.277 90.676,69.417 L84.150,69.417 L84.150,62.059 L92.288,62.059 L92.288,59.511 L82.122,59.511 L82.122,57.717 L92.288,57.717 L92.288,55.117 L94.212,55.117 L94.212,57.717 L104.326,57.717 L104.326,59.511 L94.212,59.511 L94.212,62.059 ZM94.212,67.701 L100.530,67.701 L100.530,63.827 L94.212,63.827 L94.212,67.701 ZM92.288,63.827 L86.022,63.827 L86.022,67.701 L92.288,67.701 L92.288,63.827 ZM72.762,63.931 L78.196,63.931 L78.196,65.751 L65.508,65.751 L65.508,63.931 L70.864,63.931 L70.864,60.083 L64.650,60.083 L64.650,58.263 L70.864,58.263 L70.864,55.117 L72.762,55.117 L72.762,58.263 L78.950,58.263 L78.950,60.083 L72.762,60.083 L72.762,63.931 ZM63.090,60.317 L64.728,60.915 C62.370,65.283 60.394,68.412 58.800,70.301 C60.776,69.903 62.726,69.383 64.650,68.741 L64.650,70.405 C61.842,71.359 59.138,72.009 56.538,72.355 L56.044,70.665 C56.390,70.509 56.676,70.327 56.902,70.119 C57.907,69.097 59.129,67.372 60.568,64.945 C59.458,65.119 57.968,65.335 56.096,65.595 L55.628,63.879 C55.922,63.741 56.182,63.507 56.408,63.177 C57.864,60.768 59.112,58.029 60.152,54.961 L61.894,55.637 C60.576,58.983 59.233,61.687 57.864,63.749 C59.042,63.593 60.273,63.411 61.556,63.203 L63.090,60.317 ZM49.206,78.049 L34.854,78.049 C32.895,78.049 31.916,77.026 31.916,74.981 L31.916,61.279 L33.788,61.279 L33.788,65.023 L48.010,65.023 L48.010,58.237 L30.512,58.237 L30.512,56.417 L49.908,56.417 L49.908,66.817 L33.788,66.817 L33.788,74.617 C33.788,75.692 34.316,76.229 35.374,76.229 L48.686,76.229 C49.275,76.229 49.752,76.073 50.116,75.761 C50.601,75.276 50.904,73.612 51.026,70.769 L52.846,71.341 C52.586,74.548 52.170,76.489 51.598,77.165 C51.026,77.702 50.228,77.997 49.206,78.049 ZM64.962,75.449 C62.344,76.402 59.337,77.191 55.940,77.815 L55.706,75.995 C59.172,75.441 62.258,74.669 64.962,73.681 L64.962,75.449 ZM77.442,78.803 L75.622,78.803 L75.622,77.555 L68.186,77.555 L68.186,78.803 L66.340,78.803 L66.340,68.351 L77.442,68.351 L77.442,78.803 ZM75.622,70.119 L68.186,70.119 L68.186,75.787 L75.622,75.787 L75.622,70.119 Z"/>
</svg>