<svg 
 xmlns="http://www.w3.org/2000/svg"
 xmlns:xlink="http://www.w3.org/1999/xlink"
 width="31px" height="31px">
<path fill-rule="evenodd"  fill="rgb(18, 18, 18)"
 d="M26.278,31.000 L4.719,31.000 C2.117,31.000 -0.000,28.883 -0.000,26.282 L-0.000,5.926 C-0.000,3.324 2.117,1.207 4.719,1.207 L15.099,1.207 C15.940,1.207 16.624,1.891 16.624,2.732 C16.624,3.573 15.940,4.257 15.099,4.257 L4.719,4.257 C3.799,4.257 3.050,5.006 3.050,5.926 L3.050,26.282 C3.050,27.202 3.799,27.950 4.719,27.950 L26.278,27.950 C27.198,27.950 27.946,27.202 27.946,26.282 L27.946,16.303 C27.946,15.462 28.631,14.778 29.472,14.778 C30.313,14.778 30.997,15.462 30.997,16.303 L30.997,26.282 C30.997,28.883 28.880,31.000 26.278,31.000 ZM29.472,8.648 L23.460,8.648 C20.571,8.648 18.221,11.187 18.221,14.308 L18.221,21.492 C18.221,22.333 17.537,23.017 16.696,23.017 C15.855,23.017 15.171,22.333 15.171,21.492 L15.171,14.308 C15.171,9.505 18.889,5.598 23.460,5.598 L25.942,5.598 L23.100,2.580 C22.524,1.968 22.553,1.001 23.166,0.424 C23.778,-0.152 24.745,-0.123 25.322,0.490 L30.582,6.078 C31.006,6.528 31.117,7.160 30.872,7.728 C30.626,8.295 30.090,8.648 29.472,8.648 Z"/>
</svg>